# Model exported from LeoCAD
#

mtllib Extra Parts 3 for Toy Villen.mtl

v 90.64 31.96 38.00
v 90.18 31.96 40.30
v 88.88 31.96 42.24
v 86.94 31.96 43.54
v 84.64 31.96 44.00
v 82.34 31.96 43.54
v 80.40 31.96 42.24
v 79.10 31.96 40.30
v 78.64 31.96 38.00
v 79.10 31.96 35.70
v 80.40 31.96 33.76
v 82.34 31.96 32.46
v 84.64 31.96 32.00
v 86.94 31.96 32.46
v 88.88 31.96 33.76
v 90.18 31.96 35.70
v 90.64 27.96 38.00
v 90.18 27.96 40.30
v 88.88 27.96 42.24
v 86.94 27.96 43.54
v 84.64 27.96 44.00
v 82.34 27.96 43.54
v 80.40 27.96 42.24
v 79.10 27.96 40.30
v 78.64 27.96 38.00
v 79.10 27.96 35.70
v 80.40 27.96 33.76
v 82.34 27.96 32.46
v 84.64 27.96 32.00
v 86.94 27.96 32.46
v 88.88 27.96 33.76
v 90.18 27.96 35.70
v 84.64 31.96 38.00
v 90.18 31.96 40.30
v 90.64 31.96 38.00
v 90.18 31.96 35.70
v 88.88 31.96 42.24
v 86.94 31.96 43.54
v 84.64 31.96 44.00
v 82.34 31.96 43.54
v 80.40 31.96 42.24
v 79.10 31.96 40.30
v 78.64 31.96 38.00
v 79.10 31.96 35.70
v 80.40 31.96 33.76
v 82.34 31.96 32.46
v 84.64 31.96 32.00
v 86.94 31.96 32.46
v 88.88 31.96 33.76
v 82.34 27.96 43.54
v 83.11 27.96 41.70
v 84.64 27.96 42.00
v 84.64 27.96 44.00
v 80.40 27.96 42.24
v 81.81 27.96 40.83
v 79.10 27.96 40.30
v 80.95 27.96 39.53
v 78.64 27.96 38.00
v 80.64 27.96 38.00
v 79.10 27.96 35.70
v 80.95 27.96 36.47
v 80.40 27.96 33.76
v 81.81 27.96 35.17
v 82.34 27.96 32.46
v 83.11 27.96 34.30
v 84.64 27.96 32.00
v 84.64 27.96 34.00
v 86.94 27.96 32.46
v 86.17 27.96 34.30
v 88.88 27.96 33.76
v 87.47 27.96 35.17
v 90.18 27.96 35.70
v 88.34 27.96 36.47
v 90.64 27.96 38.00
v 88.64 27.96 38.00
v 90.18 27.96 40.30
v 88.34 27.96 39.53
v 88.88 27.96 42.24
v 87.47 27.96 40.83
v 86.94 27.96 43.54
v 86.17 27.96 41.70
v 88.64 -60.04 38.00
v 88.34 -60.04 39.53
v 87.47 -60.04 40.83
v 86.17 -60.04 41.70
v 84.64 -60.04 42.00
v 83.11 -60.04 41.70
v 81.81 -60.04 40.83
v 80.95 -60.04 39.53
v 80.64 -60.04 38.00
v 80.95 -60.04 36.47
v 81.81 -60.04 35.17
v 83.11 -60.04 34.30
v 84.64 -60.04 34.00
v 86.17 -60.04 34.30
v 87.47 -60.04 35.17
v 88.34 -60.04 36.47
v 88.64 27.96 38.00
v 88.34 27.96 39.53
v 87.47 27.96 40.83
v 86.17 27.96 41.70
v 84.64 27.96 42.00
v 83.11 27.96 41.70
v 81.81 27.96 40.83
v 80.95 27.96 39.53
v 80.64 27.96 38.00
v 80.95 27.96 36.47
v 81.81 27.96 35.17
v 83.11 27.96 34.30
v 84.64 27.96 34.00
v 86.17 27.96 34.30
v 87.47 27.96 35.17
v 88.34 27.96 36.47
v 82.34 -60.04 43.54
v 83.11 -60.04 41.70
v 84.64 -60.04 42.00
v 84.64 -60.04 44.00
v 80.40 -60.04 42.24
v 81.81 -60.04 40.83
v 79.10 -60.04 40.30
v 80.95 -60.04 39.53
v 78.64 -60.04 38.00
v 80.64 -60.04 38.00
v 79.10 -60.04 35.70
v 80.95 -60.04 36.47
v 80.40 -60.04 33.76
v 81.81 -60.04 35.17
v 82.34 -60.04 32.46
v 83.11 -60.04 34.30
v 84.64 -60.04 32.00
v 84.64 -60.04 34.00
v 86.94 -60.04 32.46
v 86.17 -60.04 34.30
v 88.88 -60.04 33.76
v 87.47 -60.04 35.17
v 90.18 -60.04 35.70
v 88.34 -60.04 36.47
v 90.64 -60.04 38.00
v 88.64 -60.04 38.00
v 90.18 -60.04 40.30
v 88.34 -60.04 39.53
v 88.88 -60.04 42.24
v 87.47 -60.04 40.83
v 86.94 -60.04 43.54
v 86.17 -60.04 41.70
v 90.64 -64.04 38.00
v 90.18 -64.04 40.30
v 88.88 -64.04 42.24
v 86.94 -64.04 43.54
v 84.64 -64.04 44.00
v 82.34 -64.04 43.54
v 80.40 -64.04 42.24
v 79.10 -64.04 40.30
v 78.64 -64.04 38.00
v 79.10 -64.04 35.70
v 80.40 -64.04 33.76
v 82.34 -64.04 32.46
v 84.64 -64.04 32.00
v 86.94 -64.04 32.46
v 88.88 -64.04 33.76
v 90.18 -64.04 35.70
v 90.64 -60.04 38.00
v 90.18 -60.04 40.30
v 88.88 -60.04 42.24
v 86.94 -60.04 43.54
v 84.64 -60.04 44.00
v 82.34 -60.04 43.54
v 80.40 -60.04 42.24
v 79.10 -60.04 40.30
v 78.64 -60.04 38.00
v 79.10 -60.04 35.70
v 80.40 -60.04 33.76
v 82.34 -60.04 32.46
v 84.64 -60.04 32.00
v 86.94 -60.04 32.46
v 88.88 -60.04 33.76
v 90.18 -60.04 35.70
v 84.64 -64.04 38.00
v 90.18 -64.04 40.30
v 90.64 -64.04 38.00
v 90.18 -64.04 35.70
v 88.88 -64.04 42.24
v 86.94 -64.04 43.54
v 84.64 -64.04 44.00
v 82.34 -64.04 43.54
v 80.40 -64.04 42.24
v 79.10 -64.04 40.30
v 78.64 -64.04 38.00
v 79.10 -64.04 35.70
v 80.40 -64.04 33.76
v 82.34 -64.04 32.46
v 84.64 -64.04 32.00
v 86.94 -64.04 32.46
v 88.88 -64.04 33.76
#

vn 0.00 1.00 0.00
vn 0.00 1.00 0.00
vn 0.00 1.00 0.00
vn 0.00 1.00 0.00
vn 0.00 1.00 0.00
vn 0.00 1.00 0.00
vn 0.00 1.00 0.00
vn 0.00 1.00 0.00
vn 0.00 1.00 0.00
vn 0.00 1.00 0.00
vn 0.00 1.00 0.00
vn 0.00 1.00 0.00
vn 0.00 1.00 0.00
vn 0.00 1.00 0.00
vn 0.00 1.00 0.00
vn 0.00 1.00 0.00
vn 1.00 0.00 0.00
vn 0.92 0.00 0.38
vn 0.70 0.00 0.70
vn 0.38 0.00 0.92
vn 0.00 0.00 1.00
vn -0.38 0.00 0.92
vn -0.70 0.00 0.70
vn -0.92 0.00 0.38
vn -1.00 0.00 0.00
vn -0.92 -0.00 -0.38
vn -0.70 -0.00 -0.70
vn -0.38 -0.00 -0.92
vn 0.00 0.00 -1.00
vn 0.38 0.00 -0.92
vn 0.70 0.00 -0.70
vn 0.92 0.00 -0.38
vn 0.00 1.00 0.00
vn 0.92 0.00 0.38
vn 1.00 0.00 0.00
vn 0.92 0.00 -0.38
vn 0.70 0.00 0.70
vn 0.38 0.00 0.92
vn 0.00 0.00 1.00
vn -0.38 0.00 0.92
vn -0.70 0.00 0.70
vn -0.92 0.00 0.38
vn -1.00 0.00 0.00
vn -0.92 -0.00 -0.38
vn -0.70 -0.00 -0.70
vn -0.38 -0.00 -0.92
vn 0.00 0.00 -1.00
vn 0.38 0.00 -0.92
vn 0.70 0.00 -0.70
vn 0.00 -1.00 0.00
vn 0.00 -1.00 0.00
vn 0.00 -1.00 0.00
vn 0.00 -1.00 0.00
vn 0.00 -1.00 0.00
vn 0.00 -1.00 0.00
vn 0.00 -1.00 0.00
vn 0.00 -1.00 0.00
vn 0.00 -1.00 0.00
vn 0.00 -1.00 0.00
vn 0.00 -1.00 0.00
vn 0.00 -1.00 0.00
vn 0.00 -1.00 0.00
vn 0.00 -1.00 0.00
vn 0.00 -1.00 0.00
vn 0.00 -1.00 0.00
vn 0.00 -1.00 0.00
vn 0.00 -1.00 0.00
vn 0.00 -1.00 0.00
vn 0.00 -1.00 0.00
vn 0.00 -1.00 0.00
vn 0.00 -1.00 0.00
vn 0.00 -1.00 0.00
vn 0.00 -1.00 0.00
vn 0.00 -1.00 0.00
vn 0.00 -1.00 0.00
vn 0.00 -1.00 0.00
vn 0.00 -1.00 0.00
vn 0.00 -1.00 0.00
vn 0.00 -1.00 0.00
vn 0.00 -1.00 0.00
vn 0.00 -1.00 0.00
vn 1.00 0.00 0.00
vn 0.92 0.00 0.38
vn 0.70 0.00 0.70
vn 0.38 0.00 0.92
vn 0.00 0.00 1.00
vn -0.38 0.00 0.92
vn -0.70 0.00 0.70
vn -0.92 0.00 0.38
vn -1.00 0.00 0.00
vn -0.92 -0.00 -0.38
vn -0.70 -0.00 -0.70
vn -0.38 -0.00 -0.92
vn 0.00 0.00 -1.00
vn 0.38 0.00 -0.92
vn 0.70 0.00 -0.70
vn 0.92 0.00 -0.38
vn 1.00 0.00 0.00
vn 0.92 0.00 0.38
vn 0.70 0.00 0.70
vn 0.38 0.00 0.92
vn 0.00 0.00 1.00
vn -0.38 0.00 0.92
vn -0.70 0.00 0.70
vn -0.92 0.00 0.38
vn -1.00 0.00 0.00
vn -0.92 -0.00 -0.38
vn -0.70 -0.00 -0.70
vn -0.38 -0.00 -0.92
vn 0.00 0.00 -1.00
vn 0.38 0.00 -0.92
vn 0.70 0.00 -0.70
vn 0.92 0.00 -0.38
vn 0.00 1.00 0.00
vn 0.00 1.00 0.00
vn 0.00 1.00 0.00
vn 0.00 1.00 0.00
vn 0.00 1.00 0.00
vn 0.00 1.00 0.00
vn 0.00 1.00 0.00
vn 0.00 1.00 0.00
vn 0.00 1.00 0.00
vn 0.00 1.00 0.00
vn 0.00 1.00 0.00
vn 0.00 1.00 0.00
vn 0.00 1.00 0.00
vn 0.00 1.00 0.00
vn 0.00 1.00 0.00
vn 0.00 1.00 0.00
vn 0.00 1.00 0.00
vn 0.00 1.00 0.00
vn 0.00 1.00 0.00
vn 0.00 1.00 0.00
vn 0.00 1.00 0.00
vn 0.00 1.00 0.00
vn 0.00 1.00 0.00
vn 0.00 1.00 0.00
vn 0.00 1.00 0.00
vn 0.00 1.00 0.00
vn 0.00 1.00 0.00
vn 0.00 1.00 0.00
vn 0.00 1.00 0.00
vn 0.00 1.00 0.00
vn 0.00 1.00 0.00
vn 0.00 1.00 0.00
vn 0.00 -1.00 0.00
vn 0.00 -1.00 0.00
vn 0.00 -1.00 0.00
vn 0.00 -1.00 0.00
vn 0.00 -1.00 0.00
vn 0.00 -1.00 0.00
vn 0.00 -1.00 0.00
vn 0.00 -1.00 0.00
vn 0.00 -1.00 0.00
vn 0.00 -1.00 0.00
vn 0.00 -1.00 0.00
vn 0.00 -1.00 0.00
vn 0.00 -1.00 0.00
vn 0.00 -1.00 0.00
vn 0.00 -1.00 0.00
vn 0.00 -1.00 0.00
vn 1.00 0.00 0.00
vn 0.92 0.00 0.38
vn 0.70 0.00 0.70
vn 0.38 0.00 0.92
vn 0.00 0.00 1.00
vn -0.38 0.00 0.92
vn -0.70 0.00 0.70
vn -0.92 0.00 0.38
vn -1.00 0.00 0.00
vn -0.92 -0.00 -0.38
vn -0.70 -0.00 -0.70
vn -0.38 -0.00 -0.92
vn 0.00 0.00 -1.00
vn 0.38 0.00 -0.92
vn 0.70 0.00 -0.70
vn 0.92 0.00 -0.38
vn 0.00 -1.00 0.00
vn 0.92 0.00 0.38
vn 1.00 0.00 0.00
vn 0.92 0.00 -0.38
vn 0.70 0.00 0.70
vn 0.38 0.00 0.92
vn 0.00 0.00 1.00
vn -0.38 0.00 0.92
vn -0.70 0.00 0.70
vn -0.92 0.00 0.38
vn -1.00 0.00 0.00
vn -0.92 -0.00 -0.38
vn -0.70 -0.00 -0.70
vn -0.38 -0.00 -0.92
vn 0.00 0.00 -1.00
vn 0.38 0.00 -0.92
vn 0.70 0.00 -0.70
#

g Piece000
usemtl Red
f 2//2 1//1 33//33
f 3//3 2//2 33//33
f 4//4 3//3 33//33
f 5//5 4//4 33//33
f 6//6 5//5 33//33
f 7//7 6//6 33//33
f 8//8 7//7 33//33
f 9//9 8//8 33//33
f 10//10 9//9 33//33
f 11//11 10//10 33//33
f 12//12 11//11 33//33
f 13//13 12//12 33//33
f 14//14 13//13 33//33
f 15//15 14//14 33//33
f 16//16 15//15 33//33
f 1//1 16//16 33//33
f 17//17 35//35 34//34
f 34//34 18//18 17//17
f 18//18 34//34 37//37
f 37//37 19//19 18//18
f 19//19 37//37 38//38
f 38//38 20//20 19//19
f 20//20 38//38 39//39
f 39//39 21//21 20//20
f 21//21 39//39 40//40
f 40//40 22//22 21//21
f 22//22 40//40 41//41
f 41//41 23//23 22//22
f 23//23 41//41 42//42
f 42//42 24//24 23//23
f 24//24 42//42 43//43
f 43//43 25//25 24//24
f 25//25 43//43 44//44
f 44//44 26//26 25//25
f 26//26 44//44 45//45
f 45//45 27//27 26//26
f 27//27 45//45 46//46
f 46//46 28//28 27//27
f 28//28 46//46 47//47
f 47//47 29//29 28//28
f 29//29 47//47 48//48
f 48//48 30//30 29//29
f 30//30 48//48 49//49
f 49//49 31//31 30//30
f 31//31 49//49 36//36
f 36//36 32//32 31//31
f 32//32 36//36 35//35
f 35//35 17//17 32//32
f 52//52 53//53 50//50
f 50//50 51//51 52//52
f 51//51 50//50 54//54
f 54//54 55//55 51//51
f 55//55 54//54 56//56
f 56//56 57//57 55//55
f 57//57 56//56 58//58
f 58//58 59//59 57//57
f 59//59 58//58 60//60
f 60//60 61//61 59//59
f 61//61 60//60 62//62
f 62//62 63//63 61//61
f 63//63 62//62 64//64
f 64//64 65//65 63//63
f 65//65 64//64 66//66
f 66//66 67//67 65//65
f 67//67 66//66 68//68
f 68//68 69//69 67//67
f 69//69 68//68 70//70
f 70//70 71//71 69//69
f 71//71 70//70 72//72
f 72//72 73//73 71//71
f 73//73 72//72 74//74
f 74//74 75//75 73//73
f 75//75 74//74 76//76
f 76//76 77//77 75//75
f 77//77 76//76 78//78
f 78//78 79//79 77//77
f 79//79 78//78 80//80
f 80//80 81//81 79//79
f 81//81 80//80 53//53
f 53//53 52//52 81//81
f 83//83 82//82 98//98
f 98//98 99//99 83//83
f 84//84 83//83 99//99
f 99//99 100//100 84//84
f 85//85 84//84 100//100
f 100//100 101//101 85//85
f 86//86 85//85 101//101
f 101//101 102//102 86//86
f 87//87 86//86 102//102
f 102//102 103//103 87//87
f 88//88 87//87 103//103
f 103//103 104//104 88//88
f 89//89 88//88 104//104
f 104//104 105//105 89//89
f 90//90 89//89 105//105
f 105//105 106//106 90//90
f 91//91 90//90 106//106
f 106//106 107//107 91//91
f 92//92 91//91 107//107
f 107//107 108//108 92//92
f 93//93 92//92 108//108
f 108//108 109//109 93//93
f 94//94 93//93 109//109
f 109//109 110//110 94//94
f 95//95 94//94 110//110
f 110//110 111//111 95//95
f 96//96 95//95 111//111
f 111//111 112//112 96//96
f 97//97 96//96 112//112
f 112//112 113//113 97//97
f 82//82 97//97 113//113
f 113//113 98//98 82//82
f 114//114 117//117 116//116
f 116//116 115//115 114//114
f 118//118 114//114 115//115
f 115//115 119//119 118//118
f 120//120 118//118 119//119
f 119//119 121//121 120//120
f 122//122 120//120 121//121
f 121//121 123//123 122//122
f 124//124 122//122 123//123
f 123//123 125//125 124//124
f 126//126 124//124 125//125
f 125//125 127//127 126//126
f 128//128 126//126 127//127
f 127//127 129//129 128//128
f 130//130 128//128 129//129
f 129//129 131//131 130//130
f 132//132 130//130 131//131
f 131//131 133//133 132//132
f 134//134 132//132 133//133
f 133//133 135//135 134//134
f 136//136 134//134 135//135
f 135//135 137//137 136//136
f 138//138 136//136 137//137
f 137//137 139//139 138//138
f 140//140 138//138 139//139
f 139//139 141//141 140//140
f 142//142 140//140 141//141
f 141//141 143//143 142//142
f 144//144 142//142 143//143
f 143//143 145//145 144//144
f 117//117 144//144 145//145
f 145//145 116//116 117//117
f 178//178 146//146 147//147
f 178//178 147//147 148//148
f 178//178 148//148 149//149
f 178//178 149//149 150//150
f 178//178 150//150 151//151
f 178//178 151//151 152//152
f 178//178 152//152 153//153
f 178//178 153//153 154//154
f 178//178 154//154 155//155
f 178//178 155//155 156//156
f 178//178 156//156 157//157
f 178//178 157//157 158//158
f 178//178 158//158 159//159
f 178//178 159//159 160//160
f 178//178 160//160 161//161
f 178//178 161//161 146//146
f 179//179 180//180 162//162
f 162//162 163//163 179//179
f 182//182 179//179 163//163
f 163//163 164//164 182//182
f 183//183 182//182 164//164
f 164//164 165//165 183//183
f 184//184 183//183 165//165
f 165//165 166//166 184//184
f 185//185 184//184 166//166
f 166//166 167//167 185//185
f 186//186 185//185 167//167
f 167//167 168//168 186//186
f 187//187 186//186 168//168
f 168//168 169//169 187//187
f 188//188 187//187 169//169
f 169//169 170//170 188//188
f 189//189 188//188 170//170
f 170//170 171//171 189//189
f 190//190 189//189 171//171
f 171//171 172//172 190//190
f 191//191 190//190 172//172
f 172//172 173//173 191//191
f 192//192 191//191 173//173
f 173//173 174//174 192//192
f 193//193 192//192 174//174
f 174//174 175//175 193//193
f 194//194 193//193 175//175
f 175//175 176//176 194//194
f 181//181 194//194 176//176
f 176//176 177//177 181//181
f 180//180 181//181 177//177
f 177//177 162//162 180//180

